<?xml version="1.0" encoding="UTF-8"?><svg version="1.1" width="1024px" height="1024px" viewBox="0 0 1024.0 1024.0" xmlns="http://www.w3.org/2000/svg" xmlns:xlink="http://www.w3.org/1999/xlink"><defs><clipPath id="108113991115056104100119101"><path d="M1200,0 L1200,1200 L0,1200 L0,0 L1200,0 Z"></path></clipPath><filter id="9905795501041151145397" x="-1.7578125%" y="-1.75953079%" filterUnits="userSpaceOnUse" width="102.34375%" height="102.346041%"><feGaussianBlur stdDeviation="2.5" in="SourceAlpha" result="50111010211810211311354101"></feGaussianBlur><feOffset dx="2" dy="2" in="50111010211810211311354101" result="451119811711312010298112120"></feOffset><feColorMatrix values="0 0 0 0.09019607843137256 0 0 0 0 0.4980392156862745 0 0 0 0 0.22352941176470575 0 0 0 0 0.39874886775362317 0" type="matrix" in="451119811711312010298112120"></feColorMatrix></filter><clipPath id="1181185699114551201175349"><path d="M767.8125,1.71648625e-14 C913.5,1.71648625e-14 1008,94.40625 1008,239.949219 L1008,767.050781 C1008,912.59375 913.5,1007 767.8125,1007 L240.1875,1007 C94.5,1007 0,912.59375 0,767.050781 L0,239.949219 C0,94.40625 94.5,1.71648626e-14 240.1875,1.71648626e-14 L767.8125,1.71648625e-14 Z"></path></clipPath><filter id="1015111497111109999510853" x="-4.11877395%" y="-3.83509108%" filterUnits="userSpaceOnUse" width="104.789272%" height="104.793864%"><feGaussianBlur stdDeviation="5.5" in="SourceAlpha" result="11710912011495103111121118115"></feGaussianBlur><feOffset dx="0" dy="3" in="11710912011495103111121118115" result="45105531075399117113111106"></feOffset><feColorMatrix values="0 0 0 0.0 0 0 0 0 0.0 0 0 0 0 0.0 0 0 0 0 0.5 0" type="matrix" in="45105531075399117113111106"></feColorMatrix></filter><clipPath id="12011145509810810110911157"><path d="M1008,0 L1008,1007 L0,1007 L0,0 L1008,0 Z"></path></clipPath><filter id="491124911510311211910412154" x="-5.78193833%" y="-4.68505986%" filterUnits="userSpaceOnUse" width="107.15859%" height="107.165386%"><feGaussianBlur stdDeviation="4.5" in="SourceAlpha" result="119097116121579911410898"></feGaussianBlur><feOffset dx="0" dy="8" in="119097116121579911410898" result="51994995975510210811057"></feOffset><feColorMatrix values="0 0 0 0.27058823529411763 0 0 0 0 0.7490196078431373 0 0 0 0 0.33333333333333337 0 0 0 0 0.15 0" type="matrix" in="51994995975510210811057"></feColorMatrix></filter><clipPath id="56107991191049911310548115"><path d="M347.2,0 C538.953265,0 694.4,155.292522 694.4,346.855556 C694.4,538.418589 538.953265,693.711111 347.2,693.711111 C155.446735,693.711111 0,538.418589 0,346.855556 C0,155.292522 155.446735,0 347.2,0 Z"></path></clipPath><linearGradient id="10555118101530113504948" x1="694.4px" y1="346.855556px" x2="0px" y2="346.855556px" gradientUnits="userSpaceOnUse"><stop stop-color="#A1E796" offset="0%"></stop><stop stop-color="#96ED89" offset="100%"></stop></linearGradient><clipPath id="113109107521081121111171090"><path d="M32.5865813,5.81373675e-16 C50.5836533,-1.76440526e-15 65.1731627,15.4956779 65.1731627,34.6105653 C65.1731627,53.7254526 50.5836533,69.2211305 32.5865813,69.2211305 C14.5895094,69.2211305 0,53.7254526 0,34.6105653 C-1.49235788e-14,15.4956779 14.5895094,2.92715261e-15 32.5865813,5.81373675e-16 Z"></path></clipPath><clipPath id="9812210611155116120109119102"><path d="M40.7332267,-7.4322983e-14 C63.2295666,-7.78556043e-14 81.4664534,19.3695974 81.4664534,43.2632066 C81.4664534,67.1568158 63.2295666,86.5264131 40.7332267,86.5264131 C18.2368868,86.5264131 0,67.1568158 0,43.2632066 C0,19.3695974 18.2368868,-7.19911569e-14 40.7332267,-7.4322983e-14 Z"></path></clipPath><clipPath id="10012054107451035711110653"><path d="M24.439936,7.57916961e-17 C37.93774,-2.04378107e-15 48.879872,11.6217584 48.879872,25.9579239 C48.879872,40.2940895 37.93774,51.9158479 24.439936,51.9158479 C10.9421321,51.9158479 -4.47707365e-14,40.2940895 0,25.9579239 C0,11.6217584 10.9421321,2.19536446e-15 24.439936,7.57916961e-17 Z"></path></clipPath><clipPath id="108106119509556103118115110"><path d="M24.439936,-2.29794762e-14 C37.93774,-2.47388104e-14 48.879872,11.6217584 48.879872,25.9579239 C48.879872,40.2940895 37.93774,51.9158479 24.439936,51.9158479 C10.9421321,51.9158479 -4.34140475e-14,40.2940895 0,25.9579239 C0,11.6217584 10.9421321,-2.1220142e-14 24.439936,-2.29794762e-14 Z"></path></clipPath><clipPath id="9811053103481055752119118"><path d="M24.439936,1.8307698e-13 C37.93774,1.81677885e-13 48.879872,11.6217584 48.879872,25.9579239 C48.879872,40.2940895 37.93774,51.9158479 24.439936,51.9158479 C10.9421321,51.9158479 -1.35668898e-15,40.2940895 -1.35668898e-15,25.9579239 C-1.35668898e-15,11.6217584 10.9421321,1.84476076e-13 24.439936,1.8307698e-13 Z"></path></clipPath><clipPath id="54451141105311054105050"><path d="M24.439936,9.37378174e-14 C37.93774,9.23387217e-14 48.879872,11.6217584 48.879872,25.9579239 C48.879872,40.2940895 37.93774,51.9158479 24.439936,51.9158479 C10.9421321,51.9158479 1.69586123e-16,40.2940895 0,25.9579239 C-1.08535119e-14,11.6217584 10.9421321,9.5136913e-14 24.439936,9.37378174e-14 Z"></path></clipPath><clipPath id="109451205510952103119115109"><path d="M51.5954205,1.60004692e-16 C80.0907843,-3.55414529e-15 103.190841,24.5348233 103.190841,54.8000616 C103.190841,85.0653 80.0907843,109.600123 51.5954205,109.600123 C23.1000566,109.600123 0,85.0653 0,54.8000616 C0,24.5348233 23.1000566,3.87415468e-15 51.5954205,1.60004692e-16 Z"></path></clipPath><filter id="53112118108531051031079899" x="-60.4562497%" y="-64.2085402%" filterUnits="userSpaceOnUse" width="169.708331%" height="172.054617%"><feGaussianBlur stdDeviation="2" in="SourceAlpha" result="1055445951041149510111153"></feGaussianBlur><feOffset dx="0" dy="0" in="1055445951041149510111153" result="01181105098103455310957"></feOffset><feColorMatrix values="0 0 0 1.0 0 0 0 0 1.0 0 0 0 0 1.0 0 0 0 0 0.5 0" type="matrix" in="01181105098103455310957"></feColorMatrix></filter><clipPath id="551181179810710957100114108"><path d="M5.6,0 L7.24579871,3.33144413 L10.9259165,3.86566604 L8.26295825,6.45883365 L8.89159741,10.1204451 L5.6,8.39166667 L2.30840259,10.1204451 L2.93704175,6.45883365 L0.274083509,3.86566604 L3.95420129,3.33144413 L5.6,0 Z"></path></clipPath><filter id="11698511025110610812254111" x="-60.4562497%" y="-64.2085402%" filterUnits="userSpaceOnUse" width="169.708331%" height="172.054617%"><feGaussianBlur stdDeviation="2" in="SourceAlpha" result="4511911512151485411411250"></feGaussianBlur><feOffset dx="0" dy="0" in="4511911512151485411411250" result="10811454114975695111049"></feOffset><feColorMatrix values="0 0 0 1.0 0 0 0 0 1.0 0 0 0 0 1.0 0 0 0 0 0.5 0" type="matrix" in="10811454114975695111049"></feColorMatrix></filter><clipPath id="981091004952575110056110"><path d="M5.6,0 L7.24579871,3.33144413 L10.9259165,3.86566604 L8.26295825,6.45883365 L8.89159741,10.1204451 L5.6,8.39166667 L2.30840259,10.1204451 L2.93704175,6.45883365 L0.274083509,3.86566604 L3.95420129,3.33144413 L5.6,0 Z"></path></clipPath><filter id="571011011161144912211054119" x="-62.2525923%" y="-63.1624762%" filterUnits="userSpaceOnUse" width="169.652369%" height="171.204618%"><feGaussianBlur stdDeviation="2" in="SourceAlpha" result="9812010712012000104103106"></feGaussianBlur><feOffset dx="0" dy="0" in="9812010712012000104103106" result="98110521101051020116107115"></feOffset><feColorMatrix values="0 0 0 1.0 0 0 0 0 1.0 0 0 0 0 1.0 0 0 0 0 0.5 0" type="matrix" in="98110521101051020116107115"></feColorMatrix></filter><clipPath id="10711510897495411010511951"><path d="M4.6550217,-2.16804352e-12 L6.88017762,3.02025815 L10.6538449,3.02770226 L8.4411084,5.92920369 L9.70629983,9.41354551 L6.11359755,8.18651386 L3.12186157,10.3325114 L3.11418595,6.67266273 L1.35536027e-12,4.51462034 L3.58795849,3.4797411 L4.6550217,-2.16804352e-12 Z"></path></clipPath><filter id="110108514511997111107101122" x="-60.4562497%" y="-64.2085402%" filterUnits="userSpaceOnUse" width="169.708331%" height="172.054617%"><feGaussianBlur stdDeviation="2" in="SourceAlpha" result="4510848521219811010952105"></feGaussianBlur><feOffset dx="0" dy="0" in="4510848521219811010952105" result="09910456120981114910352"></feOffset><feColorMatrix values="0 0 0 1.0 0 0 0 0 1.0 0 0 0 0 1.0 0 0 0 0 0.5 0" type="matrix" in="09910456120981114910352"></feColorMatrix></filter><clipPath id="11412156521024511711145102"><path d="M5.6,0 L7.24579871,3.33144413 L10.9259165,3.86566604 L8.26295825,6.45883365 L8.89159741,10.1204451 L5.6,8.39166667 L2.30840259,10.1204451 L2.93704175,6.45883365 L0.274083509,3.86566604 L3.95420129,3.33144413 L5.6,0 Z"></path></clipPath><filter id="951165012211811111611711454" x="-60.4562497%" y="-64.2085402%" filterUnits="userSpaceOnUse" width="169.708331%" height="172.054617%"><feGaussianBlur stdDeviation="2" in="SourceAlpha" result="1081161025605611210610648"></feGaussianBlur><feOffset dx="0" dy="0" in="1081161025605611210610648" result="11310997119985297107103117"></feOffset><feColorMatrix values="0 0 0 1.0 0 0 0 0 1.0 0 0 0 0 1.0 0 0 0 0 0.5 0" type="matrix" in="11310997119985297107103117"></feColorMatrix></filter><clipPath id="12298119511131045511811053"><path d="M5.6,0 L7.24579871,3.33144413 L10.9259165,3.86566604 L8.26295825,6.45883365 L8.89159741,10.1204451 L5.6,8.39166667 L2.30840259,10.1204451 L2.93704175,6.45883365 L0.274083509,3.86566604 L3.95420129,3.33144413 L5.6,0 Z"></path></clipPath><filter id="116951161174510897122114117" x="-60.4562497%" y="-64.2085402%" filterUnits="userSpaceOnUse" width="169.708331%" height="172.054617%"><feGaussianBlur stdDeviation="2" in="SourceAlpha" result="11311010810953100113112112103"></feGaussianBlur><feOffset dx="0" dy="0" in="11311010810953100113112112103" result="5511211110553105104110099"></feOffset><feColorMatrix values="0 0 0 1.0 0 0 0 0 1.0 0 0 0 0 1.0 0 0 0 0 0.5 0" type="matrix" in="5511211110553105104110099"></feColorMatrix></filter><clipPath id="11495103108121571065711554"><path d="M5.6,0 L7.24579871,3.33144413 L10.9259165,3.86566604 L8.26295825,6.45883365 L8.89159741,10.1204451 L5.6,8.39166667 L2.30840259,10.1204451 L2.93704175,6.45883365 L0.274083509,3.86566604 L3.95420129,3.33144413 L5.6,0 Z"></path></clipPath><filter id="52106117515510610712211254" x="-60.4562497%" y="-64.2085402%" filterUnits="userSpaceOnUse" width="169.708331%" height="172.054617%"><feGaussianBlur stdDeviation="2" in="SourceAlpha" result="451161095311111311812010248"></feGaussianBlur><feOffset dx="0" dy="0" in="451161095311111311812010248" result="116116105491099805311549"></feOffset><feColorMatrix values="0 0 0 1.0 0 0 0 0 1.0 0 0 0 0 1.0 0 0 0 0 0.5 0" type="matrix" in="116116105491099805311549"></feColorMatrix></filter><clipPath id="10710611211310354455249116"><path d="M5.6,0 L7.24579871,3.33144413 L10.9259165,3.86566604 L8.26295825,6.45883365 L8.89159741,10.1204451 L5.6,8.39166667 L2.30840259,10.1204451 L2.93704175,6.45883365 L0.274083509,3.86566604 L3.95420129,3.33144413 L5.6,0 Z"></path></clipPath></defs><g transform="translate(-82.0 -81.0)"><g clip-path="url(#108113991115056104100119101)"><g transform="translate(88.0 87.96504854368936)"><path d="M767.8125,-3 C841.565675,-3 902.315723,20.9720237 944.65933,63.2736232 C987.003946,105.576231 1011,166.267488 1011,239.949219 L1011,767.050781 C1011,840.732512 987.003946,901.423769 944.65933,943.726377 C902.315723,986.027976 841.565675,1010 767.8125,1010 L240.1875,1010 C166.434325,1010 105.684277,986.027976 63.3406702,943.726377 C20.9960543,901.423769 -3,840.732512 -3,767.050781 L-3,239.949219 C-3,166.267488 20.9960543,105.576231 63.3406702,63.2736232 C105.684277,20.9720237 166.434325,-3 240.1875,-3 Z" stroke="none" fill="#000000" filter="url(#9905795501041151145397)"></path><g clip-path="url(#1181185699114551201175349)"><polygon points="-7,-7 1015,-7 1015,1014 -7,1014 -7,-7" stroke="none" fill="#000000" filter="url(#1015111497111109999510853)"></polygon><g clip-path="url(#12011145509810810110911157)"><polygon points="0,1.71648625e-14 1008,1.71648625e-14 1008,1007 0,1007 0,1.71648625e-14" stroke="none" fill="#1A2E39"></polygon></g><g transform="translate(854.1283983628432 854.4724648555919) rotate(-180.0)"><path d="M347.2,-7 C445.008834,-7 533.557801,32.6060612 597.654765,96.6394368 C661.754245,160.675326 701.4,249.140248 701.4,346.855556 C701.4,444.570863 661.754245,533.035785 597.654765,597.071674 C533.557801,661.10505 445.008834,700.711111 347.2,700.711111 C249.391166,700.711111 160.842199,661.10505 96.7452352,597.071674 C32.6457554,533.035785 -7,444.570863 -7,346.855556 C-7,249.140248 32.6457554,160.675326 96.7452352,96.6394368 C160.842199,32.6060612 249.391166,-7 347.2,-7 Z" stroke="none" fill="#000000" filter="url(#491124911510311211910412154)"></path><path d="M347.2,693.711111 C538.953265,693.711111 694.4,538.418589 694.4,346.855556 C694.4,155.292522 538.953265,0 347.2,0 C155.446735,0 0,155.292522 0,346.855556 C0,538.418589 155.446735,693.711111 347.2,693.711111 Z" stroke="rgba(69, 191, 85, 0.1)" stroke-width="14" fill="none" stroke-miterlimit="5"></path><g clip-path="url(#56107991191049911310548115)"><polygon points="0,0 694.4,0 694.4,693.711111 0,693.711111 0,0" stroke="none" fill="url(#10555118101530113504948)"></polygon><g transform="translate(16.0 0.0)"><path d="M679,0 L679.00975,244.417969 C635.270665,102.85951 503.259324,0 347.2,0 C155.446735,0 0,155.292522 0,346.855556 C0,538.418589 155.446735,693.711111 347.2,693.711111 C503.259549,693.711111 635.271047,590.851304 679.009939,449.292528 L679,694 L-16,694 L-16,0 L679,0 Z" stroke="none" fill="rgba(69, 191, 85, 0.33)"></path></g><g transform="translate(0.0 10.0)"><path d="M695,-10 L695,684 L429.084625,684.009114 C581.322064,647.239227 694.4,510.239674 694.4,346.855556 C694.4,155.292522 538.953265,0 347.2,0 C155.446735,0 0,155.292522 0,346.855556 C0,510.239674 113.077936,647.239227 265.315375,684.009114 L0,684 L0,-10 L695,-10 Z" stroke="none" fill="rgba(150, 237, 137, 0.15)"></path></g></g><g transform="translate(264.2105652517538 135.24675198754477) rotate(90.00000000000001)"><g clip-path="url(#113109107521081121111171090)"><polygon points="0,5.81373675e-16 65.1731627,5.81373675e-16 65.1731627,69.2211305 0,69.2211305 0,5.81373675e-16" stroke="none" fill="#177F38"></polygon><g transform="translate(10.0 0.0)"><path d="M56,0 L56.000687,10.5386528 C50.0767131,4.03987365 41.7758395,-6.16374958e-16 32.5865813,5.81373675e-16 C14.5895094,2.92715261e-15 -1.49235788e-14,15.4956779 0,34.6105653 C0,53.7254526 14.5895094,69.2211305 32.5865813,69.2211305 C41.7758395,69.2211305 50.0767131,65.1812569 56.000687,58.6824777 L56,70 L-10,70 L-10,0 L56,0 Z" stroke="none" fill="rgba(0, 0, 0, 0.1)"></path></g><g transform="translate(0.0 5.0)"><path d="M66,-5 L66,65 L48.1929334,65.001196 C58.3106582,59.1275865 65.1731627,47.7202643 65.1731627,34.6105653 C65.1731627,15.4956779 50.5836533,-1.76440526e-15 32.5865813,5.81373675e-16 C14.5895094,2.92715261e-15 -1.49235788e-14,15.4956779 0,34.6105653 C0,47.7202643 6.86250451,59.1275865 16.9802293,65.001196 L0,65 L0,-5 L66,-5 Z" stroke="none" fill="#044C29"></path></g><path d="M32.5865813,69.2211305 C50.5836533,69.2211305 65.1731627,53.7254526 65.1731627,34.6105653 C65.1731627,15.4956779 50.5836533,-1.76440526e-15 32.5865813,5.81373675e-16 C14.5895094,2.92715261e-15 -1.49235788e-14,15.4956779 0,34.6105653 C0,53.7254526 14.5895094,69.2211305 32.5865813,69.2211305 Z" stroke="#96ED89" stroke-width="2" fill="none" stroke-miterlimit="5"></path></g></g><g transform="translate(617.2632065646922 241.78621776220888) rotate(90.00000000000001)"><g clip-path="url(#9812210611155116120109119102)"><polygon points="-1.13686838e-13,-7.4322983e-14 81.4664534,-7.4322983e-14 81.4664534,86.5264131 -1.13686838e-13,86.5264131 -1.13686838e-13,-7.4322983e-14" stroke="none" fill="#177F38"></polygon><g transform="translate(0.0 6.0)"><path d="M82,-7 L82,81 L60.6656964,81.0015366 C73.0799025,73.5889596 81.4664534,59.466306 81.4664534,43.2632066 C81.4664534,19.3695974 63.2295666,-7.78556043e-14 40.7332267,-7.4322983e-14 C18.2368868,-7.19911569e-14 0,19.3695974 0,43.2632066 C0,59.4659513 8.38618366,73.5883413 20.7999417,81.0010498 L0,81 L0,-7 L82,-7 Z" stroke="none" fill="#044C29"></path></g><path d="M40.7332267,86.5264131 C63.2295666,86.5264131 81.4664534,67.1568158 81.4664534,43.2632066 C81.4664534,19.3695974 63.2295666,-7.78556043e-14 40.7332267,-7.4322983e-14 C18.2368868,-7.19911569e-14 0,19.3695974 0,43.2632066 C0,67.1568158 18.2368868,86.5264131 40.7332267,86.5264131 Z" stroke="#96ED89" stroke-width="2" fill="none" stroke-miterlimit="5"></path></g></g><g transform="translate(314.3579239388166 347.590619546215) rotate(90.00000000000001)"><g clip-path="url(#10012054107451035711110653)"><polygon points="0,7.57916961e-17 48.879872,7.57916961e-17 48.879872,51.9158479 0,51.9158479 0,7.57916961e-17" stroke="none" fill="#177F38"></polygon><g transform="translate(0.0 4.0)"><path d="M49,-4 L49,48 L37.3530033,48.0008806 C44.2741957,43.4173582 48.879872,35.2589046 48.879872,25.9579239 C48.879872,11.6217584 37.93774,-2.04378107e-15 24.439936,7.57916961e-17 C10.9421321,2.19536446e-15 0,11.6217584 0,25.9579239 C-2.90462433e-14,35.2589046 4.60567637,43.4173582 11.5268688,48.0008806 L0,48 L0,-4 L49,-4 Z" stroke="none" fill="#044C29"></path></g><path d="M24.439936,51.9158479 C37.93774,51.9158479 48.879872,40.2940895 48.879872,25.9579239 C48.879872,11.6217584 37.93774,-2.04378107e-15 24.439936,7.57916961e-17 C10.9421321,2.19536446e-15 0,11.6217584 0,25.9579239 C-4.47707365e-14,40.2940895 10.9421321,51.9158479 24.439936,51.9158479 Z" stroke="#96ED89" stroke-width="2" fill="none" stroke-miterlimit="5"></path></g></g><g transform="translate(146.3579239388165 297.24061954621254) rotate(90.00000000000001)"><g clip-path="url(#108106119509556103118115110)"><polygon points="-1.13686838e-13,9.07073616e-14 48.879872,9.07073616e-14 48.879872,51.9158479 -1.13686838e-13,51.9158479 -1.13686838e-13,9.07073616e-14" stroke="none" fill="#177F38"></polygon><g transform="translate(0.0 4.0)"><path d="M49,-5 L49,48 L37.3530033,48.0008806 C44.2741957,43.4173582 48.879872,35.2589046 48.879872,25.9579239 C48.879872,11.6217584 37.93774,-2.47388104e-14 24.439936,-2.29794762e-14 C10.9421321,-2.1220142e-14 0,11.6217584 0,25.9579239 C-2.81660541e-14,35.2589046 4.60567637,43.4173582 11.5268688,48.0008806 L0,48 L0,-5 L49,-5 Z" stroke="none" fill="#044C29"></path></g><path d="M24.439936,51.9158479 C37.93774,51.9158479 48.879872,40.2940895 48.879872,25.9579239 C48.879872,11.6217584 37.93774,-2.47388104e-14 24.439936,-2.29794762e-14 C10.9421321,-2.1220142e-14 0,11.6217584 0,25.9579239 C-4.34140475e-14,40.2940895 10.9421321,51.9158479 24.439936,51.9158479 Z" stroke="#96ED89" stroke-width="2" fill="none" stroke-miterlimit="5"></path></g></g><g transform="translate(521.5579239388128 476.2628417684357) rotate(90.00000000000001)"><g clip-path="url(#9811053103481055752119118)"><polygon points="-1.35668898e-15,2.96763818e-13 48.879872,2.96763818e-13 48.879872,51.9158479 -1.35668898e-15,51.9158479 -1.35668898e-15,2.96763818e-13" stroke="none" fill="#177F38"></polygon><g transform="translate(0.0 4.0)"><path d="M49,-4 L49,48 L37.3530033,48.0008806 C44.2741957,43.4173582 48.879872,35.2589046 48.879872,25.9579239 C48.879872,11.6217584 37.93774,1.81677885e-13 24.439936,1.8307698e-13 C10.9421321,1.84476076e-13 -1.35668898e-15,11.6217584 -1.35668898e-15,25.9579239 C-1.35668898e-15,35.2589046 4.60567637,43.4173582 11.5268688,48.0008806 L-1,48 L-1,-4 L49,-4 Z" stroke="none" fill="#044C29"></path></g><path d="M24.439936,51.9158479 C37.93774,51.9158479 48.879872,40.2940895 48.879872,25.9579239 C48.879872,11.6217584 37.93774,1.81677885e-13 24.439936,1.8307698e-13 C10.9421321,1.84476076e-13 -1.35668898e-15,11.6217584 -1.35668898e-15,25.9579239 C-1.35668898e-15,40.2940895 10.9421321,51.9158479 24.439936,51.9158479 Z" stroke="#96ED89" stroke-width="2" fill="none" stroke-miterlimit="5"></path></g></g><g transform="translate(471.15792393881475 84.65173065732456) rotate(90.00000000000001)"><g clip-path="url(#54451141105311054105050)"><polygon points="-1.13686838e-13,9.37378174e-14 48.879872,9.37378174e-14 48.879872,51.9158479 -1.13686838e-13,51.9158479 -1.13686838e-13,9.37378174e-14" stroke="none" fill="#177F38"></polygon><g transform="translate(0.0 4.0)"><path d="M49,-4 L49,48 L37.3530033,48.0008806 C44.2741957,43.4173582 48.879872,35.2589046 48.879872,25.9579239 C48.879872,11.6217584 37.93774,9.23387217e-14 24.439936,9.37378174e-14 C10.9421321,9.5136913e-14 -1.08535119e-14,11.6217584 0,25.9579239 C1.10023649e-16,35.2589046 4.60567637,43.4173582 11.5268688,48.0008806 L0,48 L0,-4 L49,-4 Z" stroke="none" fill="#044C29"></path></g><path d="M24.439936,51.9158479 C37.93774,51.9158479 48.879872,40.2940895 48.879872,25.9579239 C48.879872,11.6217584 37.93774,9.23387217e-14 24.439936,9.37378174e-14 C10.9421321,9.5136913e-14 -1.08535119e-14,11.6217584 0,25.9579239 C1.69586123e-16,40.2940895 10.9421321,51.9158479 24.439936,51.9158479 Z" stroke="#96ED89" stroke-width="2" fill="none" stroke-miterlimit="5"></path></g></g><g transform="translate(287.2000616486091 499.45735731361043) rotate(90.00000000000001)"><g clip-path="url(#109451205510952103119115109)"><polygon points="0,1.60004692e-16 103.190841,1.60004692e-16 103.190841,109.600123 0,109.600123 0,1.60004692e-16" stroke="none" fill="#177F38"></polygon><g transform="translate(0.0 8.0)"><path d="M104,-8 L104,102 L77.8226226,102.002025 C93.0073686,92.4636242 103.190841,74.8949464 103.190841,54.8000616 C103.190841,24.5348233 80.0907843,-3.55414529e-15 51.5954205,1.60004692e-16 C23.1000566,3.87415468e-15 0,24.5348233 0,54.8000616 C0,74.8946799 10.1832022,92.4631582 25.3676142,102.001646 L0,102 L0,-8 L104,-8 Z" stroke="none" fill="#044C29"></path></g><path d="M51.5954205,109.600123 C80.0907843,109.600123 103.190841,85.0653 103.190841,54.8000616 C103.190841,24.5348233 80.0907843,-3.55414529e-15 51.5954205,1.60004692e-16 C23.1000566,3.87415468e-15 0,24.5348233 0,54.8000616 C0,85.0653 23.1000566,109.600123 51.5954205,109.600123 Z" stroke="#96ED89" stroke-width="2" fill="none" stroke-miterlimit="5"></path></g></g></g><g transform="translate(46.23116692468773 122.28211702127567)"><g transform="translate(100.86800056295515 24.45642340425514)"><g opacity="72.761194%"><polygon points="5.6,-2.25774907 7.90957549,2.41731944 13.0763901,3.16735672 9.33756802,6.80819196 10.2199258,11.947629 5.6,9.52119979 0.980074185,11.947629 1.86243198,6.80819196 -1.87639006,3.16735672 3.29042451,2.41731944 5.6,-2.25774907 5.6,-2.25774907" stroke="none" fill="#000000" filter="url(#53112118108531051031079899)"></polygon><g clip-path="url(#551181179810710957100114108)"><polygon points="0.274083509,0 10.9259165,0 10.9259165,10.1204451 0.274083509,10.1204451 0.274083509,0" stroke="none" fill="#FFFFFF"></polygon></g></g></g><g transform="translate(853.1751714283286 248.64030460992717)"><g opacity="72.761194%"><polygon points="5.6,-2.25774907 7.90957549,2.41731944 13.0763901,3.16735672 9.33756802,6.80819196 10.2199258,11.947629 5.6,9.52119979 0.980074185,11.947629 1.86243198,6.80819196 -1.87639006,3.16735672 3.29042451,2.41731944 5.6,-2.25774907 5.6,-2.25774907" stroke="none" fill="#000000" filter="url(#11698511025110610812254111)"></polygon><g clip-path="url(#981091004952575110056110)"><polygon points="0.274083509,0 10.9259165,0 10.9259165,10.1204451 0.274083509,10.1204451 0.274083509,0" stroke="none" fill="#FFFFFF"></polygon></g></g></g><g transform="translate(882.5950049258568 635.8670085106337)"><g opacity="72.761194%"><polygon points="4.28151219,-2.1928944 7.38625952,2.02125453 12.6710407,2.03167953 9.56747934,6.10129545 11.3588194,11.0346525 6.27787913,9.2993363 2.12593862,12.2775584 2.11528361,7.19709044 -2.30018094,4.13729895 2.79062639,2.6689512 4.28151219,-2.1928944 4.28151219,-2.1928944" stroke="none" fill="#000000" filter="url(#571011011161144912211054119)"></polygon><g clip-path="url(#10711510897495411010511951)"><polygon points="1.35536027e-12,-2.16804352e-12 10.6538449,-2.16804352e-12 10.6538449,10.3325114 1.35536027e-12,10.3325114 1.35536027e-12,-2.16804352e-12" stroke="none" fill="#FFFFFF"></polygon></g></g></g><g transform="translate(764.9156709357424 697.0080670212717)"><g opacity="72.761194%"><polygon points="5.6,-2.25774907 7.90957549,2.41731944 13.0763901,3.16735672 9.33756802,6.80819196 10.2199258,11.947629 5.6,9.52119979 0.980074185,11.947629 1.86243198,6.80819196 -1.87639006,3.16735672 3.29042451,2.41731944 5.6,-2.25774907 5.6,-2.25774907" stroke="none" fill="#000000" filter="url(#110108514511997111107101122)"></polygon><g clip-path="url(#11412156521024511711145102)"><polygon points="0.274083509,0 10.9259165,0 10.9259165,10.1204451 0.274083509,10.1204451 0.274083509,0" stroke="none" fill="#FFFFFF"></polygon></g></g></g><g transform="translate(260.5756681209672 754.0730549645333)"><g opacity="72.761194%"><polygon points="5.6,-2.25774907 7.90957549,2.41731944 13.0763901,3.16735672 9.33756802,6.80819196 10.2199258,11.947629 5.6,9.52119979 0.980074185,11.947629 1.86243198,6.80819196 -1.87639006,3.16735672 3.29042451,2.41731944 5.6,-2.25774907 5.6,-2.25774907" stroke="none" fill="#000000" filter="url(#951165012211811111611711454)"></polygon><g clip-path="url(#12298119511131045511811053)"><polygon points="0.274083509,0 10.9259165,0 10.9259165,10.1204451 0.274083509,10.1204451 0.274083509,0" stroke="none" fill="#FFFFFF"></polygon></g></g></g><g transform="translate(710.2788372974753 0.0)"><g opacity="72.761194%"><polygon points="5.6,-2.25774907 7.90957549,2.41731944 13.0763901,3.16735672 9.33756802,6.80819196 10.2199258,11.947629 5.6,9.52119979 0.980074185,11.947629 1.86243198,6.80819196 -1.87639006,3.16735672 3.29042451,2.41731944 5.6,-2.25774907 5.6,-2.25774907" stroke="none" fill="#000000" filter="url(#116951161174510897122114117)"></polygon><g clip-path="url(#11495103108121571065711554)"><polygon points="0.274083509,0 10.9259165,0 10.9259165,10.1204451 0.274083509,10.1204451 0.274083509,0" stroke="none" fill="#FFFFFF"></polygon></g></g></g><g transform="translate(0.0 595.1063028368751)"><g opacity="72.761194%"><polygon points="5.6,-2.25774907 7.90957549,2.41731944 13.0763901,3.16735672 9.33756802,6.80819196 10.2199258,11.947629 5.6,9.52119979 0.980074185,11.947629 1.86243198,6.80819196 -1.87639006,3.16735672 3.29042451,2.41731944 5.6,-2.25774907 5.6,-2.25774907" stroke="none" fill="#000000" filter="url(#52106117515510610712211254)"></polygon><g clip-path="url(#10710611211310354455249116)"><polygon points="0.274083509,0 10.9259165,0 10.9259165,10.1204451 0.274083509,10.1204451 0.274083509,0" stroke="none" fill="#FFFFFF"></polygon></g></g></g></g></g></g></g></g></svg>